REM DIRINDEX 1\2\4,1\2\5,1\2\6,1\2\7,1\3\8,1\3\9
REM DIRNAME folder01,folder02,folder03,folder04,folder05,folder06,folder07,folder08,folder09
TITLE ""
FILE "Disc2Track03.mp3" MP3
  TRACK 01 AUDIO
    TITLE "0:"
    INDEX 01 00:00:00
  TRACK 02 AUDIO
    TITLE "4:cjc037_0906"
    INDEX 01 00:00:07
  TRACK 03 AUDIO
    TITLE "0:"
    INDEX 01 00:01:60
  TRACK 04 AUDIO
    TITLE "4:cjc037_0907"
    INDEX 01 00:02:61
  TRACK 05 AUDIO
    TITLE "0:"
    INDEX 01 00:04:56
  TRACK 06 AUDIO
    TITLE "5:cjc037_0908"
    INDEX 01 00:05:30
  TRACK 07 AUDIO
    TITLE "0:"
    INDEX 01 00:08:60
  TRACK 08 AUDIO
    TITLE "6:cjc037_0909"
    INDEX 01 00:12:20
  TRACK 09 AUDIO
    TITLE "0:"
    INDEX 01 00:15:62
  TRACK 10 AUDIO
    TITLE "7:cjc037_0910"
    INDEX 01 00:19:22
  TRACK 11 AUDIO
    TITLE "0:"
    INDEX 01 00:22:17
  TRACK 12 AUDIO
    TITLE "4:cjc037_0911"
    INDEX 01 00:24:49
  TRACK 13 AUDIO
    TITLE "0:"
    INDEX 01 00:26:26
  TRACK 14 AUDIO
    TITLE "5:cjc037_0912"
    INDEX 01 00:27:06
  TRACK 15 AUDIO
    TITLE "0:"
    INDEX 01 00:30:24
  TRACK 16 AUDIO
    TITLE "6:cjc037_0913"
    INDEX 01 00:33:58
  TRACK 17 AUDIO
    TITLE "0:"
    INDEX 01 00:36:21
  TRACK 18 AUDIO
    TITLE "7:cjc037_0914"
    INDEX 01 00:39:54
  TRACK 19 AUDIO
    TITLE "0:"
    INDEX 01 00:41:71
  TRACK 20 AUDIO
    TITLE "4:cjc037_0915"
    INDEX 01 00:44:28
  TRACK 21 AUDIO
    TITLE "0:"
    INDEX 01 00:46:02
  TRACK 22 AUDIO
    TITLE "5:cjc037_0916"
    INDEX 01 00:46:56
  TRACK 23 AUDIO
    TITLE "0:"
    INDEX 01 00:52:26
  TRACK 24 AUDIO
    TITLE "6:cjc037_0917"
    INDEX 01 00:55:65
  TRACK 25 AUDIO
    TITLE "0:"
    INDEX 01 00:59:18
  TRACK 26 AUDIO
    TITLE "7:cjc037_0918"
    INDEX 01 01:02:52
  TRACK 27 AUDIO
    TITLE "0:"
    INDEX 01 01:05:38
  TRACK 28 AUDIO
    TITLE "4:cjc037_0919"
    INDEX 01 01:07:74
  TRACK 29 AUDIO
    TITLE "0:"
    INDEX 01 01:09:59
  TRACK 30 AUDIO
    TITLE "5:cjc037_0920"
    INDEX 01 01:10:35
  TRACK 31 AUDIO
    TITLE "0:"
    INDEX 01 01:14:63
  TRACK 32 AUDIO
    TITLE "6:cjc037_0921"
    INDEX 01 01:18:21
  TRACK 33 AUDIO
    TITLE "0:"
    INDEX 01 01:21:29
  TRACK 34 AUDIO
    TITLE "7:cjc037_0922"
    INDEX 01 01:24:65
  TRACK 35 AUDIO
    TITLE "0:"
    INDEX 01 01:27:26
  TRACK 36 AUDIO
    TITLE "4:cjc037_0923"
    INDEX 01 01:29:58
  TRACK 37 AUDIO
    TITLE "0:"
    INDEX 01 01:31:39
  TRACK 38 AUDIO
    TITLE "5:cjc037_0924"
    INDEX 01 01:32:19
  TRACK 39 AUDIO
    TITLE "0:"
    INDEX 01 01:37:09
  TRACK 40 AUDIO
    TITLE "6:cjc037_0925"
    INDEX 01 01:40:40
  TRACK 41 AUDIO
    TITLE "0:"
    INDEX 01 01:46:29
  TRACK 42 AUDIO
    TITLE "7:cjc037_0926"
    INDEX 01 01:49:65
  TRACK 43 AUDIO
    TITLE "0:"
    INDEX 01 01:54:39
  TRACK 44 AUDIO
    TITLE "4:cjc037_0927"
    INDEX 01 01:56:73
  TRACK 45 AUDIO
    TITLE "0:"
    INDEX 01 01:58:60
  TRACK 46 AUDIO
    TITLE "5:cjc037_0928"
    INDEX 01 01:59:34
  TRACK 47 AUDIO
    TITLE "0:"
    INDEX 01 02:04:10
  TRACK 48 AUDIO
    TITLE "6:cjc037_0929"
    INDEX 01 02:07:43
  TRACK 49 AUDIO
    TITLE "0:"
    INDEX 01 02:12:23
  TRACK 50 AUDIO
    TITLE "7:cjc037_0930"
    INDEX 01 02:15:56
  TRACK 51 AUDIO
    TITLE "0:"
    INDEX 01 02:19:33
  TRACK 52 AUDIO
    TITLE "4:cjc037_0931"
    INDEX 01 02:21:67
  TRACK 53 AUDIO
    TITLE "0:"
    INDEX 01 02:23:56
  TRACK 54 AUDIO
    TITLE "5:cjc037_0932"
    INDEX 01 02:24:32
  TRACK 55 AUDIO
    TITLE "0:"
    INDEX 01 02:28:39
  TRACK 56 AUDIO
    TITLE "6:cjc037_0933"
    INDEX 01 02:31:73
  TRACK 57 AUDIO
    TITLE "0:"
    INDEX 01 02:35:59
  TRACK 58 AUDIO
    TITLE "7:cjc037_0934"
    INDEX 01 02:39:20
  TRACK 59 AUDIO
    TITLE "0:"
    INDEX 01 02:42:18
  TRACK 60 AUDIO
    TITLE "4:cjc037_0935"
    INDEX 01 02:44:52
  TRACK 61 AUDIO
    TITLE "0:"
    INDEX 01 02:46:30
  TRACK 62 AUDIO
    TITLE "5:cjc037_0936"
    INDEX 01 02:47:02
  TRACK 63 AUDIO
    TITLE "0:"
    INDEX 01 02:49:65
  TRACK 64 AUDIO
    TITLE "6:cjc037_0937"
    INDEX 01 02:53:26
  TRACK 65 AUDIO
    TITLE "0:"
    INDEX 01 02:55:72
  TRACK 66 AUDIO
    TITLE "7:cjc037_0938"
    INDEX 01 02:59:30
  TRACK 67 AUDIO
    TITLE "0:"
    INDEX 01 03:01:57
  TRACK 68 AUDIO
    TITLE "5:cjc037_0939"
    INDEX 01 03:04:14
  TRACK 69 AUDIO
    TITLE "0:"
    INDEX 01 03:06:48
  TRACK 70 AUDIO
    TITLE "6:cjc037_0940"
    INDEX 01 03:10:05
  TRACK 71 AUDIO
    TITLE "0:"
    INDEX 01 03:12:11
  TRACK 72 AUDIO
    TITLE "7:cjc037_0941"
    INDEX 01 03:15:45
  TRACK 73 AUDIO
    TITLE "0:"
    INDEX 01 03:17:12
  TRACK 74 AUDIO
    TITLE "4:cjc037_0942"
    INDEX 01 03:19:47
  TRACK 75 AUDIO
    TITLE "0:"
    INDEX 01 03:21:47
  TRACK 76 AUDIO
    TITLE "5:cjc037_0943"
    INDEX 01 03:22:25
  TRACK 77 AUDIO
    TITLE "0:"
    INDEX 01 03:24:20
  TRACK 78 AUDIO
    TITLE "6:cjc037_0944"
    INDEX 01 03:27:54
  TRACK 79 AUDIO
    TITLE "0:"
    INDEX 01 03:29:29
  TRACK 80 AUDIO
    TITLE "7:cjc037_0945"
    INDEX 01 03:32:67
  TRACK 81 AUDIO
    TITLE "0:"
    INDEX 01 03:34:25
  TRACK 82 AUDIO
    TITLE "5:cjc037_0946"
    INDEX 01 03:36:59
  TRACK 83 AUDIO
    TITLE "0:"
    INDEX 01 03:39:20
  TRACK 84 AUDIO
    TITLE "6:cjc037_0947"
    INDEX 01 03:42:52
  TRACK 85 AUDIO
    TITLE "0:"
    INDEX 01 03:45:21
  TRACK 86 AUDIO
    TITLE "7:cjc037_0948"
    INDEX 01 03:48:54
  TRACK 87 AUDIO
    TITLE "0:"
    INDEX 01 03:50:65
  TRACK 88 AUDIO
    TITLE "4:cjc037_0949"
    INDEX 01 03:53:22
  TRACK 89 AUDIO
    TITLE "0:"
    INDEX 01 03:55:05
  TRACK 90 AUDIO
    TITLE "5:cjc037_0950"
    INDEX 01 03:55:58
  TRACK 91 AUDIO
    TITLE "0:"
    INDEX 01 04:02:21
  TRACK 92 AUDIO
    TITLE "6:cjc037_0951"
    INDEX 01 04:05:57
  TRACK 93 AUDIO
    TITLE "0:"
    INDEX 01 04:10:36
  TRACK 94 AUDIO
    TITLE "7:cjc037_0952"
    INDEX 01 04:13:68
  TRACK 95 AUDIO
    TITLE "0:"
    INDEX 01 04:17:71
